{
  "accessors": [
    {
      "bufferView": 2,
      "componentType": 5126,
      "count": 53521,
      "max": [
        14.913898468017578,
        14.913999557495117,
        14.491201400756836
      ],
      "min": [
        -14.913999557495117,
        -14.913898468017578,
        -15.043320655822754
      ],
      "type": "VEC3"
    },
    {
      "bufferView": 2,
      "byteOffset": 642252,
      "componentType": 5126,
      "count": 53521,
      "max": [
        0.9999978542327881,
        0.9999978542327881,
        1.0
      ],
      "min": [
        -0.999997615814209,
        -0.999997615814209,
        -1.0
      ],
      "type": "VEC3"
    },
    {
      "bufferView": 3,
      "componentType": 5126,
      "count": 53521,
      "max": [
        1.0,
        1.0,
        0.999997615814209,
        1.0
      ],
      "min": [
        -1.0,
        -1.0,
        -0.9991044998168945,
        1.0
      ],
      "type": "VEC4"
    },
    {
      "bufferView": 1,
      "componentType": 5126,
      "count": 53521,
      "max": [
        0.9999982118606567,
        1.0
      ],
      "min": [
        0.0,
        1.7881393432617188e-06
      ],
      "type": "VEC2"
    },
    {
      "bufferView": 0,
      "componentType": 5125,
      "count": 304272,
      "type": "SCALAR"
    },
    {
      "bufferView": 2,
      "byteOffset": 1284504,
      "componentType": 5126,
      "count": 7062,
      "max": [
        14.956076622009277,
        14.956000328063965,
        14.435001373291016
      ],
      "min": [
        -14.956000328063965,
        -14.956076622009277,
        -14.435020446777344
      ],
      "type": "VEC3"
    },
    {
      "bufferView": 2,
      "byteOffset": 1369248,
      "componentType": 5126,
      "count": 7062,
      "max": [
        0.999997615814209,
        0.999997615814209,
        0.978998601436615
      ],
      "min": [
        -0.999997615814209,
        -0.999997615814209,
        -0.9789998531341553
      ],
      "type": "VEC3"
    },
    {
      "bufferView": 3,
      "byteOffset": 856336,
      "componentType": 5126,
      "count": 7062,
      "max": [
        1.0,
        1.0,
        0.024822605773806572,
        1.0
      ],
      "min": [
        -1.0,
        -1.0,
        -0.02501375786960125,
        -1.0
      ],
      "type": "VEC4"
    },
    {
      "bufferView": 1,
      "byteOffset": 428168,
      "componentType": 5126,
      "count": 7062,
      "max": [
        0.7987271547317505,
        0.9997478723526001
      ],
      "min": [
        0.00025211801403202116,
        0.000249326229095459
      ],
      "type": "VEC2"
    },
    {
      "bufferView": 1,
      "byteOffset": 484664,
      "componentType": 5126,
      "count": 7062,
      "max": [
        0.7987271547317505,
        0.9997478723526001
      ],
      "min": [
        0.00025211801403202116,
        0.000249326229095459
      ],
      "type": "VEC2"
    },
    {
      "bufferView": 0,
      "byteOffset": 1217088,
      "componentType": 5125,
      "count": 31488,
      "type": "SCALAR"
    },
    {
      "bufferView": 2,
      "byteOffset": 1453992,
      "componentType": 5126,
      "count": 17462,
      "max": [
        15.00421142578125,
        15.004199981689453,
        14.511301040649414
      ],
      "min": [
        -15.004199981689453,
        -15.00421142578125,
        -14.511284828186035
      ],
      "type": "VEC3"
    },
    {
      "bufferView": 2,
      "byteOffset": 1663536,
      "componentType": 5126,
      "count": 17462,
      "max": [
        0.9999978542327881,
        0.999997615814209,
        0.9790060520172119
      ],
      "min": [
        -0.999997615814209,
        -0.999997615814209,
        -0.9790055751800537
      ],
      "type": "VEC3"
    },
    {
      "bufferView": 3,
      "byteOffset": 969328,
      "componentType": 5126,
      "count": 17462,
      "max": [
        0.9787333011627197,
        0.9787420034408569,
        0.9999976754188538,
        1.0
      ],
      "min": [
        -0.9789921641349792,
        -0.9787420034408569,
        -0.9999976754188538,
        -1.0
      ],
      "type": "VEC4"
    },
    {
      "bufferView": 1,
      "byteOffset": 541160,
      "componentType": 5126,
      "count": 17462,
      "max": [
        0.8343823552131653,
        0.999871015548706
      ],
      "min": [
        0.00012901300215162337,
        0.00012665987014770508
      ],
      "type": "VEC2"
    },
    {
      "bufferView": 1,
      "byteOffset": 680856,
      "componentType": 5126,
      "count": 17462,
      "max": [
        0.8343823552131653,
        0.999871015548706
      ],
      "min": [
        0.00012901300215162337,
        0.00012665987014770508
      ],
      "type": "VEC2"
    },
    {
      "bufferView": 0,
      "byteOffset": 1343040,
      "componentType": 5125,
      "count": 94464,
      "type": "SCALAR"
    }
  ],
  "asset": {
    "extras": {
      "author": "vmmaniac (https://sketchfab.com/vmmaniac)",
      "license": "CC-BY-4.0 (http://creativecommons.org/licenses/by/4.0/)",
      "source": "https://sketchfab.com/3d-models/lampara-papel-c04efa30688a475fbd09536a89770f15",
      "title": "Lampara Papel"
    },
    "generator": "Sketchfab-16.59.0",
    "version": "2.0"
  },
  "bufferViews": [
    {
      "buffer": 0,
      "byteLength": 1720896,
      "byteOffset": 0,
      "name": "floatBufferViews",
      "target": 34963
    },
    {
      "buffer": 0,
      "byteLength": 820552,
      "byteOffset": 1720896,
      "byteStride": 8,
      "name": "floatBufferViews",
      "target": 34962
    },
    {
      "buffer": 0,
      "byteLength": 1873080,
      "byteOffset": 2541448,
      "byteStride": 12,
      "name": "floatBufferViews",
      "target": 34962
    },
    {
      "buffer": 0,
      "byteLength": 1248720,
      "byteOffset": 4414528,
      "byteStride": 16,
      "name": "floatBufferViews",
      "target": 34962
    }
  ],
  "buffers": [
    {
      "byteLength": 5663248,
      "uri": "scene.bin"
    }
  ],
  "extensionsUsed": [
    "KHR_materials_transmission"
  ],
  "images": [
    {
      "uri": "textures/Material.018_normal.png"
    },
    {
      "uri": "textures/Material.017_baseColor.png"
    },
    {
      "uri": "textures/Material.017_normal.png"
    },
    {
      "uri": "textures/Material.016_baseColor.png"
    },
    {
      "uri": "textures/Material.016_normal.png"
    },
    {
      "uri": "textures/Material.016_transmission.png"
    }
  ],
  "materials": [
    {
      "doubleSided": true,
      "name": "Material.018",
      "normalTexture": {
        "index": 0
      },
      "pbrMetallicRoughness": {
        "baseColorFactor": [
          0.4805318073004805,
          0.4805318073004805,
          0.4805318073004805,
          1.0
        ],
        "roughnessFactor": 0.0
      }
    },
    {
      "alphaMode": "BLEND",
      "doubleSided": true,
      "name": "Material.017",
      "normalTexture": {
        "index": 2
      },
      "pbrMetallicRoughness": {
        "baseColorFactor": [
          0.8,
          0.8,
          0.8,
          0.39510800863842266
        ],
        "baseColorTexture": {
          "index": 1
        },
        "metallicFactor": 0.0,
        "roughnessFactor": 0.5
      }
    },
    {
      "alphaMode": "BLEND",
      "doubleSided": true,
      "extensions": {
        "KHR_materials_transmission": {
          "transmissionFactor": 1.0,
          "transmissionTexture": {
            "index": 5
          }
        }
      },
      "name": "Material.016",
      "normalTexture": {
        "index": 4
      },
      "pbrMetallicRoughness": {
        "baseColorTexture": {
          "index": 3
        },
        "metallicFactor": 0.24949079551889422,
        "roughnessFactor": 0.5174264676588265
      }
    }
  ],
  "meshes": [
    {
      "name": "Object_0",
      "primitives": [
        {
          "attributes": {
            "NORMAL": 1,
            "POSITION": 0,
            "TANGENT": 2,
            "TEXCOORD_0": 3
          },
          "indices": 4,
          "material": 0,
          "mode": 4
        }
      ]
    },
    {
      "name": "Object_1",
      "primitives": [
        {
          "attributes": {
            "NORMAL": 6,
            "POSITION": 5,
            "TANGENT": 7,
            "TEXCOORD_0": 8,
            "TEXCOORD_1": 9
          },
          "indices": 10,
          "material": 1,
          "mode": 4
        }
      ]
    },
    {
      "name": "Object_2",
      "primitives": [
        {
          "attributes": {
            "NORMAL": 12,
            "POSITION": 11,
            "TANGENT": 13,
            "TEXCOORD_0": 14,
            "TEXCOORD_1": 15
          },
          "indices": 16,
          "material": 2,
          "mode": 4
        }
      ]
    }
  ],
  "nodes": [
    {
      "children": [
        1
      ],
      "matrix": [
        1.0,
        0.0,
        0.0,
        0.0,
        0.0,
        2.220446049250313e-16,
        -1.0,
        0.0,
        0.0,
        1.0,
        2.220446049250313e-16,
        0.0,
        0.0,
        0.0,
        0.0,
        1.0
      ],
      "name": "Sketchfab_model"
    },
    {
      "children": [
        2
      ],
      "name": "root"
    },
    {
      "children": [
        3,
        5,
        7
      ],
      "matrix": [
        1.0,
        0.0,
        0.0,
        0.0,
        0.0,
        2.220446049250313e-16,
        1.0,
        0.0,
        0.0,
        -1.0,
        2.220446049250313e-16,
        0.0,
        0.0,
        0.0,
        0.0,
        1.0
      ],
      "name": "GLTF_SceneRootNode"
    },
    {
      "children": [
        4
      ],
      "matrix": [
        1.0,
        0.0,
        0.0,
        0.0,
        0.0,
        0.0,
        1.0,
        0.0,
        0.0,
        -1.0,
        0.0,
        0.0,
        0.0,
        0.0,
        0.0,
        1.0
      ],
      "name": "model_0_0"
    },
    {
      "mesh": 0,
      "name": "Object_4"
    },
    {
      "children": [
        6
      ],
      "matrix": [
        1.0,
        0.0,
        0.0,
        0.0,
        0.0,
        0.0,
        1.0,
        0.0,
        0.0,
        -1.0,
        0.0,
        0.0,
        0.0,
        0.0,
        0.0,
        1.0
      ],
      "name": "model_1_1"
    },
    {
      "mesh": 1,
      "name": "Object_6"
    },
    {
      "children": [
        8
      ],
      "matrix": [
        1.0,
        0.0,
        0.0,
        0.0,
        0.0,
        0.0,
        1.0,
        0.0,
        0.0,
        -1.0,
        0.0,
        0.0,
        0.0,
        0.0,
        0.0,
        1.0
      ],
      "name": "model_2_2"
    },
    {
      "mesh": 2,
      "name": "Object_8"
    }
  ],
  "samplers": [
    {
      "magFilter": 9729,
      "minFilter": 9987,
      "wrapS": 10497,
      "wrapT": 10497
    }
  ],
  "scene": 0,
  "scenes": [
    {
      "name": "Sketchfab_Scene",
      "nodes": [
        0
      ]
    }
  ],
  "textures": [
    {
      "sampler": 0,
      "source": 0
    },
    {
      "sampler": 0,
      "source": 1
    },
    {
      "sampler": 0,
      "source": 2
    },
    {
      "sampler": 0,
      "source": 3
    },
    {
      "sampler": 0,
      "source": 4
    },
    {
      "sampler": 0,
      "source": 5
    }
  ]
}
