{
  "accessors": [
    {
      "bufferView": 2,
      "componentType": 5126,
      "count": 13710,
      "max": [
        12.31914234161377,
        4.099490165710449,
        31.62853240966797
      ],
      "min": [
        -12.31914234161377,
        -0.21671000123023987,
        18.71101951599121
      ],
      "type": "VEC3"
    },
    {
      "bufferView": 2,
      "byteOffset": 164520,
      "componentType": 5126,
      "count": 13710,
      "max": [
        1.0,
        0.9999012351036072,
        0.999992847442627
      ],
      "min": [
        -0.9999999403953552,
        -1.0,
        -0.9999925494194031
      ],
      "type": "VEC3"
    },
    {
      "bufferView": 3,
      "componentType": 5126,
      "count": 13710,
      "max": [
        0.9999998211860657,
        0.99973064661026,
        1.0,
        1.0
      ],
      "min": [
        -0.999994695186615,
        -0.9991165399551392,
        -1.0,
        -1.0
      ],
      "type": "VEC4"
    },
    {
      "bufferView": 1,
      "componentType": 5126,
      "count": 13710,
      "max": [
        0.9964209794998169,
        0.5637590289115906
      ],
      "min": [
        0.0024979999288916588,
        0.0040420000441372395
      ],
      "type": "VEC2"
    },
    {
      "bufferView": 0,
      "componentType": 5125,
      "count": 74892,
      "type": "SCALAR"
    },
    {
      "bufferView": 2,
      "byteOffset": 329040,
      "componentType": 5126,
      "count": 1029,
      "max": [
        2.5348689556121826,
        1.5785340070724487,
        32.200767517089844
      ],
      "min": [
        -2.577903985977173,
        -0.9258890151977539,
        26.44459342956543
      ],
      "type": "VEC3"
    },
    {
      "bufferView": 2,
      "byteOffset": 341388,
      "componentType": 5126,
      "count": 1029,
      "max": [
        0.9956218600273132,
        0.9970898628234863,
        0.9849705100059509
      ],
      "min": [
        -0.9956219792366028,
        -0.9975192546844482,
        -0.9763381481170654
      ],
      "type": "VEC3"
    },
    {
      "bufferView": 3,
      "byteOffset": 219360,
      "componentType": 5126,
      "count": 1029,
      "max": [
        0.9995846748352051,
        0.9909236431121826,
        0.99859619140625,
        1.0
      ],
      "min": [
        -0.9952553510665894,
        -0.99994295835495,
        -0.9815019965171814,
        -1.0
      ],
      "type": "VEC4"
    },
    {
      "bufferView": 1,
      "byteOffset": 109680,
      "componentType": 5126,
      "count": 1029,
      "max": [
        0.590520977973938,
        0.7030050158500671
      ],
      "min": [
        0.0019710001070052385,
        0.0019389999797567725
      ],
      "type": "VEC2"
    },
    {
      "bufferView": 0,
      "byteOffset": 299568,
      "componentType": 5125,
      "count": 5568,
      "type": "SCALAR"
    },
    {
      "bufferView": 2,
      "byteOffset": 353736,
      "componentType": 5126,
      "count": 116,
      "max": [
        1.6812809705734253,
        3.329596996307373,
        2.6128220558166504
      ],
      "min": [
        -1.6812809705734253,
        2.1826529502868652,
        2.6095430850982666
      ],
      "type": "VEC3"
    },
    {
      "bufferView": 2,
      "byteOffset": 355128,
      "componentType": 5126,
      "count": 116,
      "max": [
        0.015237001702189445,
        2.999999651365215e-06,
        -0.9995523691177368
      ],
      "min": [
        -0.015237001702189445,
        -0.029696011915802956,
        -0.9999927878379822
      ],
      "type": "VEC3"
    },
    {
      "bufferView": 1,
      "byteOffset": 117912,
      "componentType": 5126,
      "count": 116,
      "max": [
        0.9804379940032959,
        0.008016999810934067
      ],
      "min": [
        0.8255249857902527,
        0.0035719999577850103
      ],
      "type": "VEC2"
    },
    {
      "bufferView": 0,
      "byteOffset": 321840,
      "componentType": 5125,
      "count": 336,
      "type": "SCALAR"
    },
    {
      "bufferView": 2,
      "byteOffset": 356520,
      "componentType": 5126,
      "count": 3586,
      "max": [
        9.68575382232666,
        4.935182094573975,
        26.678295135498047
      ],
      "min": [
        -9.68575382232666,
        -0.4244529902935028,
        2.6095430850982666
      ],
      "type": "VEC3"
    },
    {
      "bufferView": 2,
      "byteOffset": 399552,
      "componentType": 5126,
      "count": 3586,
      "max": [
        0.9997625350952148,
        0.999983549118042,
        0.9998926520347595
      ],
      "min": [
        -0.9997625350952148,
        -0.9993612170219421,
        -0.9999712109565735
      ],
      "type": "VEC3"
    },
    {
      "bufferView": 3,
      "byteOffset": 235824,
      "componentType": 5126,
      "count": 3586,
      "max": [
        0.9999985694885254,
        0.9995557069778442,
        0.8468461632728577,
        1.0
      ],
      "min": [
        -0.9999943971633911,
        -0.9999983906745911,
        -0.8468776345252991,
        1.0
      ],
      "type": "VEC4"
    },
    {
      "bufferView": 1,
      "byteOffset": 118840,
      "componentType": 5126,
      "count": 3586,
      "max": [
        0.9944919943809509,
        0.2962850034236908
      ],
      "min": [
        0.5355730056762695,
        0.002329000039026141
      ],
      "type": "VEC2"
    },
    {
      "bufferView": 0,
      "byteOffset": 323184,
      "componentType": 5125,
      "count": 19248,
      "type": "SCALAR"
    },
    {
      "bufferView": 2,
      "byteOffset": 442584,
      "componentType": 5126,
      "count": 1096,
      "max": [
        2.0601348876953125,
        3.665940046310425,
        2.7660629749298096
      ],
      "min": [
        -2.0601348876953125,
        -0.27222201228141785,
        -0.0015180000336840749
      ],
      "type": "VEC3"
    },
    {
      "bufferView": 2,
      "byteOffset": 455736,
      "componentType": 5126,
      "count": 1096,
      "max": [
        0.9993869066238403,
        0.9978482127189636,
        1.0
      ],
      "min": [
        -0.9993869066238403,
        -0.9948727488517761,
        -1.0
      ],
      "type": "VEC3"
    },
    {
      "bufferView": 3,
      "byteOffset": 293200,
      "componentType": 5126,
      "count": 1096,
      "max": [
        0.9998180270195007,
        0.9997960329055786,
        0.9983574748039246,
        1.0
      ],
      "min": [
        -0.9999741911888123,
        -0.9999697208404541,
        -0.9905295372009277,
        -1.0
      ],
      "type": "VEC4"
    },
    {
      "bufferView": 1,
      "byteOffset": 147528,
      "componentType": 5126,
      "count": 1096,
      "max": [
        0.9951519966125488,
        0.2567349970340729
      ],
      "min": [
        0.6724410057067871,
        0.0545400008559227
      ],
      "type": "VEC2"
    },
    {
      "bufferView": 0,
      "byteOffset": 400176,
      "componentType": 5125,
      "count": 4584,
      "type": "SCALAR"
    },
    {
      "bufferView": 2,
      "byteOffset": 468888,
      "componentType": 5126,
      "count": 464,
      "max": [
        2.3356080055236816,
        3.1936049461364746,
        13.621065139770508
      ],
      "min": [
        -2.3356080055236816,
        0.9306960105895996,
        9.243942260742188
      ],
      "type": "VEC3"
    },
    {
      "bufferView": 2,
      "byteOffset": 474456,
      "componentType": 5126,
      "count": 464,
      "max": [
        0.9995325207710266,
        0.9913892149925232,
        0.08873197436332703
      ],
      "min": [
        -0.9995325207710266,
        -0.9924394488334656,
        -0.3171398341655731
      ],
      "type": "VEC3"
    },
    {
      "bufferView": 3,
      "byteOffset": 310736,
      "componentType": 5126,
      "count": 464,
      "max": [
        0.9829226732254028,
        0.9994146227836609,
        0.3786123991012573,
        1.0
      ],
      "min": [
        -0.9820196032524109,
        -0.9998772740364075,
        -0.3918834924697876,
        1.0
      ],
      "type": "VEC4"
    },
    {
      "bufferView": 1,
      "byteOffset": 156296,
      "componentType": 5126,
      "count": 464,
      "max": [
        0.9951120018959045,
        0.6015869975090027
      ],
      "min": [
        0.7176120281219482,
        0.2603529989719391
      ],
      "type": "VEC2"
    },
    {
      "bufferView": 0,
      "byteOffset": 418512,
      "componentType": 5125,
      "count": 2352,
      "type": "SCALAR"
    },
    {
      "bufferView": 2,
      "byteOffset": 480024,
      "componentType": 5126,
      "count": 1556,
      "max": [
        2.906799077987671,
        5.2520952224731445,
        19.489126205444336
      ],
      "min": [
        -2.897768974304199,
        -0.43512099981307983,
        13.588545799255371
      ],
      "type": "VEC3"
    },
    {
      "bufferView": 2,
      "byteOffset": 498696,
      "componentType": 5126,
      "count": 1556,
      "max": [
        0.9994202256202698,
        0.9999273419380188,
        0.9928643703460693
      ],
      "min": [
        -0.9989796280860901,
        -0.9992495179176331,
        -0.9999603629112244
      ],
      "type": "VEC3"
    },
    {
      "bufferView": 3,
      "byteOffset": 318160,
      "componentType": 5126,
      "count": 1556,
      "max": [
        0.9985184669494629,
        0.9990748167037964,
        0.999835729598999,
        1.0
      ],
      "min": [
        -0.9999596476554871,
        -0.9990776181221008,
        -0.9999970197677612,
        1.0
      ],
      "type": "VEC4"
    },
    {
      "bufferView": 1,
      "byteOffset": 160008,
      "componentType": 5126,
      "count": 1556,
      "max": [
        0.7542930245399475,
        1.0
      ],
      "min": [
        0.005057999864220619,
        0.6558830142021179
      ],
      "type": "VEC2"
    },
    {
      "bufferView": 0,
      "byteOffset": 427920,
      "componentType": 5125,
      "count": 7728,
      "type": "SCALAR"
    },
    {
      "bufferView": 2,
      "byteOffset": 517368,
      "componentType": 5126,
      "count": 7669,
      "max": [
        3.76601505279541,
        5.85349702835083,
        31.944137573242188
      ],
      "min": [
        -3.7270760536193848,
        0.5771679878234863,
        17.87175750732422
      ],
      "type": "VEC3"
    },
    {
      "bufferView": 2,
      "byteOffset": 609396,
      "componentType": 5126,
      "count": 7669,
      "max": [
        0.9968685507774353,
        0.9999922513961792,
        0.9999978542327881
      ],
      "min": [
        -0.9968464970588684,
        -0.9999210238456726,
        -0.9999991059303284
      ],
      "type": "VEC3"
    },
    {
      "bufferView": 3,
      "byteOffset": 343056,
      "componentType": 5126,
      "count": 7669,
      "max": [
        1.0,
        0.9997370839118958,
        0.9999594688415527,
        1.0
      ],
      "min": [
        -0.9998919367790222,
        -0.9999997615814209,
        -0.9999347925186157,
        -1.0
      ],
      "type": "VEC4"
    },
    {
      "bufferView": 1,
      "byteOffset": 172456,
      "componentType": 5126,
      "count": 7669,
      "max": [
        0.9978470206260681,
        0.9971110224723816
      ],
      "min": [
        0.7273449897766113,
        0.6925309896469116
      ],
      "type": "VEC2"
    },
    {
      "bufferView": 0,
      "byteOffset": 458832,
      "componentType": 5125,
      "count": 25326,
      "type": "SCALAR"
    }
  ],
  "asset": {
    "extras": {
      "author": "Kurnazart (https://sketchfab.com/Kurnazart)",
      "license": "CC-BY-4.0 (http://creativecommons.org/licenses/by/4.0/)",
      "source": "https://sketchfab.com/3d-models/personaje-5540937844f6427f93e9a64ab90266da",
      "title": "Personaje"
    },
    "generator": "Sketchfab-12.68.0",
    "version": "2.0"
  },
  "bufferViews": [
    {
      "buffer": 0,
      "byteLength": 560136,
      "byteOffset": 0,
      "name": "floatBufferViews",
      "target": 34963
    },
    {
      "buffer": 0,
      "byteLength": 233808,
      "byteOffset": 560136,
      "byteStride": 8,
      "name": "floatBufferViews",
      "target": 34962
    },
    {
      "buffer": 0,
      "byteLength": 701424,
      "byteOffset": 793944,
      "byteStride": 12,
      "name": "floatBufferViews",
      "target": 34962
    },
    {
      "buffer": 0,
      "byteLength": 465760,
      "byteOffset": 1495368,
      "byteStride": 16,
      "name": "floatBufferViews",
      "target": 34962
    }
  ],
  "buffers": [
    {
      "byteLength": 1961128,
      "uri": "scene.bin"
    }
  ],
  "images": [
    {
      "uri": "textures/lambert4SG_baseColor.png"
    },
    {
      "uri": "textures/lambert4SG_metallicRoughness.png"
    },
    {
      "uri": "textures/lambert4SG_normal.png"
    },
    {
      "uri": "textures/lambert5SG_baseColor.png"
    },
    {
      "uri": "textures/lambert5SG_metallicRoughness.png"
    },
    {
      "uri": "textures/lambert5SG_normal.png"
    },
    {
      "uri": "textures/lambert6SG_baseColor.png"
    },
    {
      "uri": "textures/lambert6SG_metallicRoughness.png"
    },
    {
      "uri": "textures/lambert6SG_normal.png"
    },
    {
      "uri": "textures/lambert7SG_baseColor.png"
    },
    {
      "uri": "textures/lambert7SG_metallicRoughness.png"
    },
    {
      "uri": "textures/lambert7SG_normal.png"
    },
    {
      "uri": "textures/lambert8SG_baseColor.png"
    },
    {
      "uri": "textures/lambert8SG_metallicRoughness.png"
    },
    {
      "uri": "textures/lambert8SG_normal.png"
    },
    {
      "uri": "textures/lambert9SG_baseColor.png"
    },
    {
      "uri": "textures/lambert9SG_metallicRoughness.png"
    },
    {
      "uri": "textures/lambert9SG_normal.png"
    }
  ],
  "materials": [
    {
      "doubleSided": true,
      "name": "initialShadingGroup",
      "pbrMetallicRoughness": {
        "metallicFactor": 0.0,
        "roughnessFactor": 0.6
      }
    },
    {
      "doubleSided": true,
      "name": "lambert4SG",
      "normalTexture": {
        "index": 2
      },
      "pbrMetallicRoughness": {
        "baseColorTexture": {
          "index": 0
        },
        "metallicRoughnessTexture": {
          "index": 1
        }
      }
    },
    {
      "doubleSided": true,
      "name": "lambert5SG",
      "normalTexture": {
        "index": 5
      },
      "pbrMetallicRoughness": {
        "baseColorTexture": {
          "index": 3
        },
        "metallicRoughnessTexture": {
          "index": 4
        }
      }
    },
    {
      "doubleSided": true,
      "name": "lambert6SG",
      "normalTexture": {
        "index": 8
      },
      "pbrMetallicRoughness": {
        "baseColorTexture": {
          "index": 6
        },
        "metallicRoughnessTexture": {
          "index": 7
        }
      }
    },
    {
      "doubleSided": true,
      "name": "lambert7SG",
      "normalTexture": {
        "index": 11
      },
      "pbrMetallicRoughness": {
        "baseColorTexture": {
          "index": 9
        },
        "metallicRoughnessTexture": {
          "index": 10
        }
      }
    },
    {
      "doubleSided": true,
      "name": "lambert8SG",
      "normalTexture": {
        "index": 14
      },
      "pbrMetallicRoughness": {
        "baseColorTexture": {
          "index": 12
        },
        "metallicRoughnessTexture": {
          "index": 13
        }
      }
    },
    {
      "doubleSided": true,
      "name": "lambert9SG",
      "normalTexture": {
        "index": 17
      },
      "pbrMetallicRoughness": {
        "baseColorTexture": {
          "index": 15
        },
        "metallicRoughnessTexture": {
          "index": 16
        }
      }
    }
  ],
  "meshes": [
    {
      "name": "Object_0",
      "primitives": [
        {
          "attributes": {
            "NORMAL": 1,
            "POSITION": 0,
            "TANGENT": 2,
            "TEXCOORD_0": 3
          },
          "indices": 4,
          "material": 3,
          "mode": 4
        }
      ]
    },
    {
      "name": "Object_1",
      "primitives": [
        {
          "attributes": {
            "NORMAL": 6,
            "POSITION": 5,
            "TANGENT": 7,
            "TEXCOORD_0": 8
          },
          "indices": 9,
          "material": 4,
          "mode": 4
        }
      ]
    },
    {
      "name": "Object_2",
      "primitives": [
        {
          "attributes": {
            "NORMAL": 11,
            "POSITION": 10,
            "TEXCOORD_0": 12
          },
          "indices": 13,
          "material": 0,
          "mode": 4
        }
      ]
    },
    {
      "name": "Object_3",
      "primitives": [
        {
          "attributes": {
            "NORMAL": 15,
            "POSITION": 14,
            "TANGENT": 16,
            "TEXCOORD_0": 17
          },
          "indices": 18,
          "material": 1,
          "mode": 4
        }
      ]
    },
    {
      "name": "Object_4",
      "primitives": [
        {
          "attributes": {
            "NORMAL": 20,
            "POSITION": 19,
            "TANGENT": 21,
            "TEXCOORD_0": 22
          },
          "indices": 23,
          "material": 2,
          "mode": 4
        }
      ]
    },
    {
      "name": "Object_5",
      "primitives": [
        {
          "attributes": {
            "NORMAL": 25,
            "POSITION": 24,
            "TANGENT": 26,
            "TEXCOORD_0": 27
          },
          "indices": 28,
          "material": 3,
          "mode": 4
        }
      ]
    },
    {
      "name": "Object_6",
      "primitives": [
        {
          "attributes": {
            "NORMAL": 30,
            "POSITION": 29,
            "TANGENT": 31,
            "TEXCOORD_0": 32
          },
          "indices": 33,
          "material": 5,
          "mode": 4
        }
      ]
    },
    {
      "name": "Object_7",
      "primitives": [
        {
          "attributes": {
            "NORMAL": 35,
            "POSITION": 34,
            "TANGENT": 36,
            "TEXCOORD_0": 37
          },
          "indices": 38,
          "material": 6,
          "mode": 4
        }
      ]
    }
  ],
  "nodes": [
    {
      "children": [
        1
      ],
      "matrix": [
        1.0,
        0.0,
        0.0,
        0.0,
        0.0,
        2.220446049250313e-16,
        -1.0,
        0.0,
        0.0,
        1.0,
        2.220446049250313e-16,
        0.0,
        0.0,
        0.0,
        0.0,
        1.0
      ],
      "name": "Sketchfab_model"
    },
    {
      "children": [
        2,
        3,
        4,
        5,
        6,
        7,
        8,
        9
      ],
      "name": "pERSONAJE.obj.cleaner.materialmerger.gles"
    },
    {
      "mesh": 0,
      "name": "Object_2"
    },
    {
      "mesh": 1,
      "name": "Object_3"
    },
    {
      "mesh": 2,
      "name": "Object_4"
    },
    {
      "mesh": 3,
      "name": "Object_5"
    },
    {
      "mesh": 4,
      "name": "Object_6"
    },
    {
      "mesh": 5,
      "name": "Object_7"
    },
    {
      "mesh": 6,
      "name": "Object_8"
    },
    {
      "mesh": 7,
      "name": "Object_9"
    }
  ],
  "samplers": [
    {
      "magFilter": 9729,
      "minFilter": 9987,
      "wrapS": 10497,
      "wrapT": 10497
    }
  ],
  "scene": 0,
  "scenes": [
    {
      "name": "Sketchfab_Scene",
      "nodes": [
        0
      ]
    }
  ],
  "textures": [
    {
      "sampler": 0,
      "source": 0
    },
    {
      "sampler": 0,
      "source": 1
    },
    {
      "sampler": 0,
      "source": 2
    },
    {
      "sampler": 0,
      "source": 3
    },
    {
      "sampler": 0,
      "source": 4
    },
    {
      "sampler": 0,
      "source": 5
    },
    {
      "sampler": 0,
      "source": 6
    },
    {
      "sampler": 0,
      "source": 7
    },
    {
      "sampler": 0,
      "source": 8
    },
    {
      "sampler": 0,
      "source": 9
    },
    {
      "sampler": 0,
      "source": 10
    },
    {
      "sampler": 0,
      "source": 11
    },
    {
      "sampler": 0,
      "source": 12
    },
    {
      "sampler": 0,
      "source": 13
    },
    {
      "sampler": 0,
      "source": 14
    },
    {
      "sampler": 0,
      "source": 15
    },
    {
      "sampler": 0,
      "source": 16
    },
    {
      "sampler": 0,
      "source": 17
    }
  ]
}
